<svg xmlns="http://www.w3.org/2000/svg" width="98.64" height="32.258" viewBox="0 0 98.64 32.258"><defs><style>.a{fill:#fff;}.b{fill:#404040;}</style></defs><g transform="translate(-670 -96)"><path class="a" d="M14.176,19.846v-5.67H9.923A4.259,4.259,0,0,1,5.67,9.923h0V5.67h8.506V0H0V9.923A9.561,9.561,0,0,0,2.906,16.94a9.561,9.561,0,0,0,7.017,2.906h4.253Z" transform="translate(710.127 103.573)"/><path class="a" d="M5.67,19.846V9.923A4.259,4.259,0,0,1,9.923,5.67h4.253V0H9.923A9.561,9.561,0,0,0,2.906,2.906,9.561,9.561,0,0,0,0,9.923H0v9.923Z" transform="translate(725.799 103.573)"/><path class="a" d="M5.67,19.846V0H0V19.846Z" transform="translate(741.712 103.573)"/><path class="a" d="M9.923,19.846A9.561,9.561,0,0,0,16.94,16.94a9.561,9.561,0,0,0,2.906-7.017A9.561,9.561,0,0,0,16.94,2.906,9.561,9.561,0,0,0,9.923,0,9.561,9.561,0,0,0,2.906,2.906,9.561,9.561,0,0,0,0,9.923,9.561,9.561,0,0,0,2.906,16.94,9.561,9.561,0,0,0,9.923,19.846Z" transform="translate(748.794 103.573)"/><path class="b" d="M4.253,8.506A4.1,4.1,0,0,1,1.247,7.258,4.1,4.1,0,0,1,0,4.253,4.1,4.1,0,0,1,1.247,1.247,4.1,4.1,0,0,1,4.253,0,4.1,4.1,0,0,1,7.258,1.247,4.1,4.1,0,0,1,8.506,4.253,4.1,4.1,0,0,1,7.258,7.258,4.1,4.1,0,0,1,4.253,8.506Z" transform="translate(754.464 109.244)"/><g transform="translate(670 96)"><path class="a" d="M16.129,32.258c-6.275,0-10.161-1.088-12.6-3.528S0,22.4,0,16.129,1.088,5.968,3.528,3.528,9.854,0,16.129,0,26.29,1.088,28.73,3.528s3.528,6.326,3.528,12.6S31.17,26.29,28.73,28.73,22.4,32.258,16.129,32.258Zm5.6-24.787a1,1,0,0,0-.6.21l-8.781,6.6a1,1,0,0,0,.6,1.8h1.007L9.584,23.218a.963.963,0,0,0-.031,1,1.037,1.037,0,0,0,.886.533.989.989,0,0,0,.61-.219l8.52-6.611a1,1,0,0,0-.613-1.79h-.912l4.531-7.112a.963.963,0,0,0,.044-1.005A1.035,1.035,0,0,0,21.732,7.471Z"/></g></g></svg>